<svg width="74" height="36" viewBox="0 0 74 36" fill="none" xmlns="http://www.w3.org/2000/svg">
<g clip-path="url(#clip0_1917_37145)">
<path d="M9.08269 24.1318H3.10063L0.416992 35.8025H3.46901L4.47904 31.4114H6.05506L8.77285 35.8025H12.1152L9.06805 31.1552C11.7712 30.4526 12.691 29.0036 12.8617 27.4545C13.0325 25.9054 12.1689 24.1294 9.08025 24.1294L9.08269 24.1318ZM9.81459 27.6228C9.68772 28.7645 8.61671 29.4378 7.13095 29.4378H4.93525L5.7501 25.9176H8.06535C9.2925 25.9176 9.93169 26.5177 9.81215 27.6228H9.81459ZM17.6215 24.1343H20.6931L19.9782 27.2325L18.0021 35.7976H14.8964L17.6215 24.1343ZM43.5942 23.4878L43.6162 35.7952H40.6886L40.7203 27.0129L34.5016 35.7952H31.6642L29.0904 26.9641L24.9698 35.7952H21.5665L27.6534 22.9853C28.095 22.1583 28.5219 21.7899 29.3612 21.785C29.9174 21.785 30.5225 22.1046 30.7982 23.0755L33.455 32.6848L40.3665 22.8633C40.9545 22.0314 41.4497 21.7777 42.1329 21.7948C42.8647 21.8143 43.5967 22.2949 43.5967 23.4878H43.5942ZM64.3045 30.2331C64.0972 32.1091 65.5244 33.5874 68.0226 33.624C69.2503 33.6582 70.4754 33.4934 71.6504 33.1361L71.0575 35.7C70.0467 35.8876 69.0213 35.9855 67.9933 35.9928C63.0798 35.9928 60.7963 33.5533 61.1622 30.1745C61.577 26.3591 64.9437 23.7927 70.2476 23.7927C71.3739 23.8096 72.4955 23.942 73.5948 24.1879L73.0581 26.5372C72.0197 26.2872 70.9545 26.1659 69.8865 26.1762C66.793 26.1518 64.5827 27.696 64.307 30.2331H64.3045ZM51.6354 31.4358L54.4922 27.4032L55.3851 31.4358H51.6354ZM56.4293 35.7976H59.3959L56.5562 25.637C56.1853 24.4051 55.4559 24.0806 54.6971 24.1465C54.2214 24.1879 53.7213 24.3904 53.2187 25.1101L45.8509 35.8001H48.8736L50.3716 33.4093H55.8633L56.4342 35.8074L56.4293 35.7976ZM61.6477 9.69476C61.0256 9.90699 33.5721 17.5012 33.1695 17.5964C32.8968 17.6813 32.6065 17.6927 32.328 17.6293C32.0495 17.5658 31.7928 17.4299 31.5837 17.2353C30.8518 16.5693 31.1519 15.6447 31.3593 15.1764C31.6033 14.625 36.89 3.50326 36.89 3.50326L15.7845 12.3514C14.9037 12.6588 14.6037 11.9342 14.6037 11.9342C14.6037 11.9342 14.2353 11.1316 15.1965 10.6779L38.3733 0.268452C38.7539 0.0976859 39.4687 -0.238968 40.025 0.268452C40.5812 0.775873 40.3641 1.54188 40.1933 2.01515C40.1104 2.23958 36.3142 12.7832 36.3142 12.7832C36.3142 12.7832 58.908 3.08854 59.6399 2.81287C61.072 2.26886 62.3748 2.59088 63.2994 3.66914C63.7118 4.16256 63.9992 4.74811 64.1372 5.37618C64.2753 6.00426 64.2598 6.65634 64.0923 7.27719C63.7727 8.36766 63.0676 9.20198 61.6526 9.685L61.6477 9.69476Z" fill="white"/>
</g>
<defs>
<clipPath id="clip0_1917_37145">
<rect width="73.19" height="36" fill="white" transform="translate(0.404785)"/>
</clipPath>
</defs>
</svg>
